<?xml version="1.0" encoding="us-ascii" standalone="no"?><svg xmlns="http://www.w3.org/2000/svg" xmlns:xlink="http://www.w3.org/1999/xlink" contentStyleType="text/css" height="535px" preserveAspectRatio="none" style="width:214px;height:535px;background:#FFFFFF;" version="1.1" viewBox="0 0 214 535" width="214px" zoomAndPan="magnify"><defs/><g><ellipse cx="85.5" cy="20" fill="#222222" rx="10" ry="10" style="stroke:#222222;stroke-width:1.0;"/><rect fill="#F1F1F1" height="33.9688" rx="12.5" ry="12.5" style="stroke:#181818;stroke-width:0.5;" width="101" x="35" y="50"/><text fill="#000000" font-family="sans-serif" font-size="12" lengthAdjust="spacing" textLength="81" x="45" y="71.1387">load_config()</text><rect fill="#F1F1F1" height="33.9688" rx="12.5" ry="12.5" style="stroke:#181818;stroke-width:0.5;" width="109" x="31" y="152.3711"/><text fill="#000000" font-family="sans-serif" font-size="12" lengthAdjust="spacing" textLength="89" x="41" y="173.5098">page_transit()</text><rect fill="#F1F1F1" height="33.9688" rx="12.5" ry="12.5" style="stroke:#181818;stroke-width:0.5;" width="107" x="32" y="206.3398"/><text fill="#000000" font-family="sans-serif" font-size="12" lengthAdjust="spacing" textLength="87" x="42" y="227.4785">get_mac_list()</text><rect fill="#F1F1F1" height="33.9688" rx="12.5" ry="12.5" style="stroke:#181818;stroke-width:0.5;" width="149" x="11" y="308.3086"/><text fill="#000000" font-family="sans-serif" font-size="12" lengthAdjust="spacing" textLength="129" x="21" y="329.4473">add_mac(hostname)</text><polygon fill="#F1F1F1" points="44,260.3086,127,260.3086,139,272.3086,127,284.3086,44,284.3086,32,272.3086,44,260.3086" style="stroke:#181818;stroke-width:0.5;"/><text fill="#000000" font-family="sans-serif" font-size="11" lengthAdjust="spacing" textLength="83" x="44" y="276.1167">mac in maclist</text><text fill="#000000" font-family="sans-serif" font-size="11" lengthAdjust="spacing" textLength="26" x="139" y="269.7144">True</text><polygon fill="#F1F1F1" points="85.5,362.2773,97.5,374.2773,85.5,386.2773,73.5,374.2773,85.5,362.2773" style="stroke:#181818;stroke-width:0.5;"/><rect fill="#F1F1F1" height="33.9688" rx="12.5" ry="12.5" style="stroke:#181818;stroke-width:0.5;" width="70" x="50.5" y="406.2773"/><text fill="#000000" font-family="sans-serif" font-size="12" lengthAdjust="spacing" textLength="50" x="60.5" y="427.416">logout()</text><polygon fill="#F1F1F1" points="68,103.9688,103,103.9688,115,115.9688,103,127.9688,68,127.9688,56,115.9688,68,103.9688" style="stroke:#181818;stroke-width:0.5;"/><text fill="#000000" font-family="sans-serif" font-size="11" lengthAdjust="spacing" textLength="26" x="89.5" y="138.1792">True</text><text fill="#000000" font-family="sans-serif" font-size="11" lengthAdjust="spacing" textLength="35" x="68" y="119.7769">login()</text><polygon fill="#F1F1F1" points="85.5,460.2461,97.5,472.2461,85.5,484.2461,73.5,472.2461,85.5,460.2461" style="stroke:#181818;stroke-width:0.5;"/><ellipse cx="85.5" cy="514.2461" fill="none" rx="10" ry="10" style="stroke:#222222;stroke-width:1.5;"/><line style="stroke:#222222;stroke-width:2.5;" x1="79.3128" x2="91.6872" y1="508.0589" y2="520.4333"/><line style="stroke:#222222;stroke-width:2.5;" x1="91.6872" x2="79.3128" y1="508.0589" y2="520.4333"/><line style="stroke:#181818;stroke-width:1.0;" x1="85.5" x2="85.5" y1="30" y2="50"/><polygon fill="#181818" points="81.5,40,85.5,50,89.5,40,85.5,44" style="stroke:#181818;stroke-width:1.0;"/><line style="stroke:#181818;stroke-width:1.0;" x1="85.5" x2="85.5" y1="186.3398" y2="206.3398"/><polygon fill="#181818" points="81.5,196.3398,85.5,206.3398,89.5,196.3398,85.5,200.3398" style="stroke:#181818;stroke-width:1.0;"/><line style="stroke:#181818;stroke-width:1.0;" x1="85.5" x2="85.5" y1="284.3086" y2="308.3086"/><polygon fill="#181818" points="81.5,298.3086,85.5,308.3086,89.5,298.3086,85.5,302.3086" style="stroke:#181818;stroke-width:1.0;"/><line style="stroke:#181818;stroke-width:1.0;" x1="139" x2="170" y1="272.3086" y2="272.3086"/><polygon fill="#181818" points="166,315.293,170,325.293,174,315.293,170,319.293" style="stroke:#181818;stroke-width:1.0;"/><line style="stroke:#181818;stroke-width:1.0;" x1="170" x2="170" y1="272.3086" y2="374.2773"/><line style="stroke:#181818;stroke-width:1.0;" x1="170" x2="97.5" y1="374.2773" y2="374.2773"/><polygon fill="#181818" points="107.5,370.2773,97.5,374.2773,107.5,378.2773,103.5,374.2773" style="stroke:#181818;stroke-width:1.0;"/><line style="stroke:#181818;stroke-width:1.0;" x1="85.5" x2="85.5" y1="342.2773" y2="362.2773"/><polygon fill="#181818" points="81.5,352.2773,85.5,362.2773,89.5,352.2773,85.5,356.2773" style="stroke:#181818;stroke-width:1.0;"/><line style="stroke:#181818;stroke-width:1.0;" x1="85.5" x2="85.5" y1="240.3086" y2="260.3086"/><polygon fill="#181818" points="81.5,250.3086,85.5,260.3086,89.5,250.3086,85.5,254.3086" style="stroke:#181818;stroke-width:1.0;"/><line style="stroke:#181818;stroke-width:1.0;" x1="85.5" x2="85.5" y1="386.2773" y2="406.2773"/><polygon fill="#181818" points="81.5,396.2773,85.5,406.2773,89.5,396.2773,85.5,400.2773" style="stroke:#181818;stroke-width:1.0;"/><line style="stroke:#181818;stroke-width:1.0;" x1="85.5" x2="85.5" y1="127.9688" y2="152.3711"/><polygon fill="#181818" points="81.5,142.3711,85.5,152.3711,89.5,142.3711,85.5,146.3711" style="stroke:#181818;stroke-width:1.0;"/><line style="stroke:#181818;stroke-width:1.0;" x1="115" x2="188" y1="115.9688" y2="115.9688"/><polygon fill="#181818" points="184,280.8086,188,290.8086,192,280.8086,188,284.8086" style="stroke:#181818;stroke-width:1.0;"/><line style="stroke:#181818;stroke-width:1.0;" x1="188" x2="188" y1="115.9688" y2="472.2461"/><line style="stroke:#181818;stroke-width:1.0;" x1="188" x2="97.5" y1="472.2461" y2="472.2461"/><polygon fill="#181818" points="107.5,468.2461,97.5,472.2461,107.5,476.2461,103.5,472.2461" style="stroke:#181818;stroke-width:1.0;"/><line style="stroke:#181818;stroke-width:1.0;" x1="85.5" x2="85.5" y1="440.2461" y2="460.2461"/><polygon fill="#181818" points="81.5,450.2461,85.5,460.2461,89.5,450.2461,85.5,454.2461" style="stroke:#181818;stroke-width:1.0;"/><line style="stroke:#181818;stroke-width:1.0;" x1="85.5" x2="85.5" y1="83.9688" y2="103.9688"/><polygon fill="#181818" points="81.5,93.9688,85.5,103.9688,89.5,93.9688,85.5,97.9688" style="stroke:#181818;stroke-width:1.0;"/><line style="stroke:#181818;stroke-width:1.0;" x1="85.5" x2="85.5" y1="484.2461" y2="504.2461"/><polygon fill="#181818" points="81.5,494.2461,85.5,504.2461,89.5,494.2461,85.5,498.2461" style="stroke:#181818;stroke-width:1.0;"/><!--SRC=[POv13iGW30Fll297-0BznjvHL0ADH4D5qlyNLhkddYnR7ijgECp5rZ6dlKlXwiFck81llRBu480L_6VS5C0E4XSlh9Hie2ZRAiTAbaxSKsErFpqziC2KbRv6g2cvY3alq1zTJV2aoP9aBjiwLFlzNVibKnu0]--></g></svg>