<?xml version="1.0" encoding="us-ascii" standalone="no"?><svg xmlns="http://www.w3.org/2000/svg" xmlns:xlink="http://www.w3.org/1999/xlink" contentStyleType="text/css" height="535px" preserveAspectRatio="none" style="width:230px;height:535px;background:#FFFFFF;" version="1.1" viewBox="0 0 230 535" width="230px" zoomAndPan="magnify"><defs/><g><ellipse cx="93.5" cy="20" fill="#222222" rx="10" ry="10" style="stroke:#222222;stroke-width:1.0;"/><rect fill="#F1F1F1" height="33.9688" rx="12.5" ry="12.5" style="stroke:#181818;stroke-width:0.5;" width="101" x="43" y="50"/><text fill="#000000" font-family="sans-serif" font-size="12" lengthAdjust="spacing" textLength="81" x="53" y="71.1387">load_config()</text><rect fill="#F1F1F1" height="33.9688" rx="12.5" ry="12.5" style="stroke:#181818;stroke-width:0.5;" width="109" x="39" y="152.3711"/><text fill="#000000" font-family="sans-serif" font-size="12" lengthAdjust="spacing" textLength="89" x="49" y="173.5098">page_transit()</text><rect fill="#F1F1F1" height="33.9688" rx="12.5" ry="12.5" style="stroke:#181818;stroke-width:0.5;" width="107" x="40" y="206.3398"/><text fill="#000000" font-family="sans-serif" font-size="12" lengthAdjust="spacing" textLength="87" x="50" y="227.4785">get_mac_list()</text><rect fill="#F1F1F1" height="33.9688" rx="12.5" ry="12.5" style="stroke:#181818;stroke-width:0.5;" width="165" x="11" y="308.7109"/><text fill="#000000" font-family="sans-serif" font-size="12" lengthAdjust="spacing" textLength="145" x="21" y="329.8496">delete_mac(hostname)</text><polygon fill="#F1F1F1" points="52,260.3086,135,260.3086,147,272.3086,135,284.3086,52,284.3086,40,272.3086,52,260.3086" style="stroke:#181818;stroke-width:0.5;"/><text fill="#000000" font-family="sans-serif" font-size="11" lengthAdjust="spacing" textLength="26" x="97.5" y="294.519">True</text><text fill="#000000" font-family="sans-serif" font-size="11" lengthAdjust="spacing" textLength="83" x="52" y="276.1167">mac in maclist</text><polygon fill="#F1F1F1" points="93.5,362.6797,105.5,374.6797,93.5,386.6797,81.5,374.6797,93.5,362.6797" style="stroke:#181818;stroke-width:0.5;"/><rect fill="#F1F1F1" height="33.9688" rx="12.5" ry="12.5" style="stroke:#181818;stroke-width:0.5;" width="70" x="58.5" y="406.6797"/><text fill="#000000" font-family="sans-serif" font-size="12" lengthAdjust="spacing" textLength="50" x="68.5" y="427.8184">logout()</text><polygon fill="#F1F1F1" points="76,103.9688,111,103.9688,123,115.9688,111,127.9688,76,127.9688,64,115.9688,76,103.9688" style="stroke:#181818;stroke-width:0.5;"/><text fill="#000000" font-family="sans-serif" font-size="11" lengthAdjust="spacing" textLength="26" x="97.5" y="138.1792">True</text><text fill="#000000" font-family="sans-serif" font-size="11" lengthAdjust="spacing" textLength="35" x="76" y="119.7769">login()</text><polygon fill="#F1F1F1" points="93.5,460.6484,105.5,472.6484,93.5,484.6484,81.5,472.6484,93.5,460.6484" style="stroke:#181818;stroke-width:0.5;"/><ellipse cx="93.5" cy="514.6484" fill="none" rx="10" ry="10" style="stroke:#222222;stroke-width:1.5;"/><line style="stroke:#222222;stroke-width:2.5;" x1="87.3128" x2="99.6872" y1="508.4613" y2="520.8356"/><line style="stroke:#222222;stroke-width:2.5;" x1="99.6872" x2="87.3128" y1="508.4613" y2="520.8356"/><line style="stroke:#181818;stroke-width:1.0;" x1="93.5" x2="93.5" y1="30" y2="50"/><polygon fill="#181818" points="89.5,40,93.5,50,97.5,40,93.5,44" style="stroke:#181818;stroke-width:1.0;"/><line style="stroke:#181818;stroke-width:1.0;" x1="93.5" x2="93.5" y1="186.3398" y2="206.3398"/><polygon fill="#181818" points="89.5,196.3398,93.5,206.3398,97.5,196.3398,93.5,200.3398" style="stroke:#181818;stroke-width:1.0;"/><line style="stroke:#181818;stroke-width:1.0;" x1="93.5" x2="93.5" y1="284.3086" y2="308.7109"/><polygon fill="#181818" points="89.5,298.7109,93.5,308.7109,97.5,298.7109,93.5,302.7109" style="stroke:#181818;stroke-width:1.0;"/><line style="stroke:#181818;stroke-width:1.0;" x1="147" x2="186" y1="272.3086" y2="272.3086"/><polygon fill="#181818" points="182,315.6953,186,325.6953,190,315.6953,186,319.6953" style="stroke:#181818;stroke-width:1.0;"/><line style="stroke:#181818;stroke-width:1.0;" x1="186" x2="186" y1="272.3086" y2="374.6797"/><line style="stroke:#181818;stroke-width:1.0;" x1="186" x2="105.5" y1="374.6797" y2="374.6797"/><polygon fill="#181818" points="115.5,370.6797,105.5,374.6797,115.5,378.6797,111.5,374.6797" style="stroke:#181818;stroke-width:1.0;"/><line style="stroke:#181818;stroke-width:1.0;" x1="93.5" x2="93.5" y1="342.6797" y2="362.6797"/><polygon fill="#181818" points="89.5,352.6797,93.5,362.6797,97.5,352.6797,93.5,356.6797" style="stroke:#181818;stroke-width:1.0;"/><line style="stroke:#181818;stroke-width:1.0;" x1="93.5" x2="93.5" y1="240.3086" y2="260.3086"/><polygon fill="#181818" points="89.5,250.3086,93.5,260.3086,97.5,250.3086,93.5,254.3086" style="stroke:#181818;stroke-width:1.0;"/><line style="stroke:#181818;stroke-width:1.0;" x1="93.5" x2="93.5" y1="386.6797" y2="406.6797"/><polygon fill="#181818" points="89.5,396.6797,93.5,406.6797,97.5,396.6797,93.5,400.6797" style="stroke:#181818;stroke-width:1.0;"/><line style="stroke:#181818;stroke-width:1.0;" x1="93.5" x2="93.5" y1="127.9688" y2="152.3711"/><polygon fill="#181818" points="89.5,142.3711,93.5,152.3711,97.5,142.3711,93.5,146.3711" style="stroke:#181818;stroke-width:1.0;"/><line style="stroke:#181818;stroke-width:1.0;" x1="123" x2="204" y1="115.9688" y2="115.9688"/><polygon fill="#181818" points="200,281.2109,204,291.2109,208,281.2109,204,285.2109" style="stroke:#181818;stroke-width:1.0;"/><line style="stroke:#181818;stroke-width:1.0;" x1="204" x2="204" y1="115.9688" y2="472.6484"/><line style="stroke:#181818;stroke-width:1.0;" x1="204" x2="105.5" y1="472.6484" y2="472.6484"/><polygon fill="#181818" points="115.5,468.6484,105.5,472.6484,115.5,476.6484,111.5,472.6484" style="stroke:#181818;stroke-width:1.0;"/><line style="stroke:#181818;stroke-width:1.0;" x1="93.5" x2="93.5" y1="440.6484" y2="460.6484"/><polygon fill="#181818" points="89.5,450.6484,93.5,460.6484,97.5,450.6484,93.5,454.6484" style="stroke:#181818;stroke-width:1.0;"/><line style="stroke:#181818;stroke-width:1.0;" x1="93.5" x2="93.5" y1="83.9688" y2="103.9688"/><polygon fill="#181818" points="89.5,93.9688,93.5,103.9688,97.5,93.9688,93.5,97.9688" style="stroke:#181818;stroke-width:1.0;"/><line style="stroke:#181818;stroke-width:1.0;" x1="93.5" x2="93.5" y1="484.6484" y2="504.6484"/><polygon fill="#181818" points="89.5,494.6484,93.5,504.6484,97.5,494.6484,93.5,498.6484" style="stroke:#181818;stroke-width:1.0;"/><!--SRC=[POv13iGW30Fll2B7y0NwZRsZg0GQYOOAqlyNLhkddYnR7il3g9iBjL6AUzCi1Vtc90FMLaJHUv01-EatUx23rOMB2aVhf4DibKDXYoVjiSgmFpqzYCAKbRv74bSsNXWURPZIoPDaJPAtTQUq-xlrIwOy]--></g></svg>