<?xml version="1.0" encoding="us-ascii" standalone="no"?><svg xmlns="http://www.w3.org/2000/svg" xmlns:xlink="http://www.w3.org/1999/xlink" contentStyleType="text/css" height="418px" preserveAspectRatio="none" style="width:423px;height:418px;background:#FFFFFF;" version="1.1" viewBox="0 0 423 418" width="423px" zoomAndPan="magnify"><defs/><g><rect fill="none" height="50.2656" style="stroke:#000000;stroke-width:1.5;" width="191" x="9" y="228.0938"/><line style="stroke:#181818;stroke-width:0.5;stroke-dasharray:5.0,5.0;" x1="105" x2="105" y1="36.2969" y2="382.7578"/><line style="stroke:#181818;stroke-width:0.5;stroke-dasharray:5.0,5.0;" x1="285" x2="285" y1="36.2969" y2="382.7578"/><line style="stroke:#181818;stroke-width:0.5;stroke-dasharray:5.0,5.0;" x1="378" x2="378" y1="36.2969" y2="382.7578"/><rect fill="#E2E2F0" height="30.2969" rx="2.5" ry="2.5" style="stroke:#181818;stroke-width:0.5;" width="52" x="79" y="5"/><text fill="#000000" font-family="sans-serif" font-size="14" lengthAdjust="spacing" textLength="38" x="86" y="24.9951">script</text><rect fill="#E2E2F0" height="30.2969" rx="2.5" ry="2.5" style="stroke:#181818;stroke-width:0.5;" width="52" x="79" y="381.7578"/><text fill="#000000" font-family="sans-serif" font-size="14" lengthAdjust="spacing" textLength="38" x="86" y="401.7529">script</text><rect fill="#E2E2F0" height="30.2969" rx="2.5" ry="2.5" style="stroke:#181818;stroke-width:0.5;" width="90" x="240" y="5"/><text fill="#000000" font-family="sans-serif" font-size="14" lengthAdjust="spacing" textLength="76" x="247" y="24.9951">config.toml</text><rect fill="#E2E2F0" height="30.2969" rx="2.5" ry="2.5" style="stroke:#181818;stroke-width:0.5;" width="90" x="240" y="381.7578"/><text fill="#000000" font-family="sans-serif" font-size="14" lengthAdjust="spacing" textLength="76" x="247" y="401.7529">config.toml</text><rect fill="#E2E2F0" height="30.2969" rx="2.5" ry="2.5" style="stroke:#181818;stroke-width:0.5;" width="77" x="340" y="5"/><text fill="#000000" font-family="sans-serif" font-size="14" lengthAdjust="spacing" textLength="63" x="347" y="24.9951">airstation</text><rect fill="#E2E2F0" height="30.2969" rx="2.5" ry="2.5" style="stroke:#181818;stroke-width:0.5;" width="77" x="340" y="381.7578"/><text fill="#000000" font-family="sans-serif" font-size="14" lengthAdjust="spacing" textLength="63" x="347" y="401.7529">airstation</text><polygon fill="#181818" points="273,63.4297,283,67.4297,273,71.4297,277,67.4297" style="stroke:#181818;stroke-width:1.0;"/><line style="stroke:#181818;stroke-width:1.0;stroke-dasharray:2.0,2.0;" x1="105" x2="279" y1="67.4297" y2="67.4297"/><text fill="#000000" font-family="sans-serif" font-size="13" font-weight="bold" lengthAdjust="spacing" textLength="23" x="112" y="62.3638">1.1</text><text fill="#000000" font-family="sans-serif" font-size="13" lengthAdjust="spacing" textLength="82" x="139" y="62.3638">load_config()</text><polygon fill="#181818" points="116,92.5625,106,96.5625,116,100.5625,112,96.5625" style="stroke:#181818;stroke-width:1.0;"/><line style="stroke:#181818;stroke-width:1.0;stroke-dasharray:2.0,2.0;" x1="110" x2="284" y1="96.5625" y2="96.5625"/><text fill="#000000" font-family="sans-serif" font-size="13" font-weight="bold" lengthAdjust="spacing" textLength="23" x="122" y="91.4966">1.2</text><text fill="#000000" font-family="sans-serif" font-size="13" lengthAdjust="spacing" textLength="129" x="149" y="91.4966">username,password</text><polygon fill="#181818" points="366.5,121.6953,376.5,125.6953,366.5,129.6953,370.5,125.6953" style="stroke:#181818;stroke-width:1.0;"/><line style="stroke:#181818;stroke-width:1.0;stroke-dasharray:2.0,2.0;" x1="105" x2="372.5" y1="125.6953" y2="125.6953"/><text fill="#000000" font-family="sans-serif" font-size="13" font-weight="bold" lengthAdjust="spacing" textLength="23" x="112" y="120.6294">2.1</text><text fill="#000000" font-family="sans-serif" font-size="13" lengthAdjust="spacing" textLength="169" x="139" y="120.6294">login(username,password)</text><polygon fill="#181818" points="116,150.8281,106,154.8281,116,158.8281,112,154.8281" style="stroke:#181818;stroke-width:1.0;"/><line style="stroke:#181818;stroke-width:1.0;stroke-dasharray:2.0,2.0;" x1="110" x2="377.5" y1="154.8281" y2="154.8281"/><text fill="#000000" font-family="sans-serif" font-size="13" font-weight="bold" lengthAdjust="spacing" textLength="23" x="122" y="149.7622">2.2</text><text fill="#000000" font-family="sans-serif" font-size="13" lengthAdjust="spacing" textLength="77" x="149" y="149.7622">config_page</text><polygon fill="#181818" points="366.5,179.9609,376.5,183.9609,366.5,187.9609,370.5,183.9609" style="stroke:#181818;stroke-width:1.0;"/><line style="stroke:#181818;stroke-width:1.0;stroke-dasharray:2.0,2.0;" x1="105" x2="372.5" y1="183.9609" y2="183.9609"/><text fill="#000000" font-family="sans-serif" font-size="13" font-weight="bold" lengthAdjust="spacing" textLength="23" x="112" y="178.895">2.3</text><text fill="#000000" font-family="sans-serif" font-size="13" lengthAdjust="spacing" textLength="90" x="139" y="178.895">transit_page()</text><polygon fill="#181818" points="116,209.0938,106,213.0938,116,217.0938,112,213.0938" style="stroke:#181818;stroke-width:1.0;"/><line style="stroke:#181818;stroke-width:1.0;stroke-dasharray:2.0,2.0;" x1="110" x2="377.5" y1="213.0938" y2="213.0938"/><text fill="#000000" font-family="sans-serif" font-size="13" font-weight="bold" lengthAdjust="spacing" textLength="23" x="122" y="208.0278">2.4</text><text fill="#000000" font-family="sans-serif" font-size="13" lengthAdjust="spacing" textLength="53" x="149" y="208.0278">mac_list</text><path d="M9,228.0938 L86,228.0938 L86,235.2266 L76,245.2266 L9,245.2266 L9,228.0938 " fill="#EEEEEE" style="stroke:#000000;stroke-width:1.5;"/><rect fill="none" height="50.2656" style="stroke:#000000;stroke-width:1.5;" width="191" x="9" y="228.0938"/><text fill="#000000" font-family="sans-serif" font-size="13" font-weight="bold" lengthAdjust="spacing" textLength="32" x="24" y="241.1606">loop</text><text fill="#000000" font-family="sans-serif" font-size="11" font-weight="bold" lengthAdjust="spacing" textLength="62" x="101" y="240.3042">[mac_list]</text><polygon fill="#FEFFDD" points="29,250.2266,180,250.2266,190,261.2266,180,273.2266,29,273.2266,19,261.2266,29,250.2266" style="stroke:#181818;stroke-width:0.5;"/><text fill="#000000" font-family="sans-serif" font-size="13" lengthAdjust="spacing" textLength="147" x="31" y="266.2935">matching mac address</text><polygon fill="#181818" points="366.5,302.4922,376.5,306.4922,366.5,310.4922,370.5,306.4922" style="stroke:#181818;stroke-width:1.0;"/><line style="stroke:#181818;stroke-width:1.0;stroke-dasharray:2.0,2.0;" x1="105" x2="372.5" y1="306.4922" y2="306.4922"/><text fill="#000000" font-family="sans-serif" font-size="13" font-weight="bold" lengthAdjust="spacing" textLength="23" x="112" y="301.4263">3.1</text><text fill="#000000" font-family="sans-serif" font-size="13" lengthAdjust="spacing" textLength="40" x="139" y="301.4263">delete</text><polygon fill="#181818" points="116,331.625,106,335.625,116,339.625,112,335.625" style="stroke:#181818;stroke-width:1.0;"/><line style="stroke:#181818;stroke-width:1.0;stroke-dasharray:2.0,2.0;" x1="110" x2="377.5" y1="335.625" y2="335.625"/><text fill="#000000" font-family="sans-serif" font-size="13" font-weight="bold" lengthAdjust="spacing" textLength="23" x="122" y="330.5591">3.2</text><text fill="#000000" font-family="sans-serif" font-size="13" lengthAdjust="spacing" textLength="59" x="149" y="330.5591">response</text><polygon fill="#181818" points="366.5,360.7578,376.5,364.7578,366.5,368.7578,370.5,364.7578" style="stroke:#181818;stroke-width:1.0;"/><line style="stroke:#181818;stroke-width:1.0;stroke-dasharray:2.0,2.0;" x1="105" x2="372.5" y1="364.7578" y2="364.7578"/><text fill="#000000" font-family="sans-serif" font-size="13" font-weight="bold" lengthAdjust="spacing" textLength="23" x="112" y="359.6919">3.3</text><text fill="#000000" font-family="sans-serif" font-size="13" lengthAdjust="spacing" textLength="50" x="139" y="359.6919">logout()</text><!--SRC=[VP1D2eD034RtSufPAbJ1TbTAhoAfa-h0c0oJs5w__Y1MYbqclBpa2mpADFGFJBOgAoDDyb5jKTnjm_JqRQdSXwiD3AvUEbc-KhUYs5E3O2BeyHH1vCt96TZqvxqUV185zKoJlVMK_Kpl5dtpoz8wGej7Iar0udLciaDH3qqTlAW9p76hEc95ow_nwcLm8hNfFBKJPC6vX286QPVmSfpGOK15ixLcOfMFiiWa-ES_F6YMVm00]--></g></svg>