<?xml version="1.0" encoding="us-ascii" standalone="no"?><svg xmlns="http://www.w3.org/2000/svg" xmlns:xlink="http://www.w3.org/1999/xlink" contentStyleType="text/css" height="208px" preserveAspectRatio="none" style="width:724px;height:208px;background:#FFFFFF;" version="1.1" viewBox="0 0 724 208" width="724px" zoomAndPan="magnify"><defs/><g><text fill="#000000" font-family="sans-serif" font-size="14" font-weight="bold" lengthAdjust="spacing" textLength="98" x="306" y="22.9951">&#12518;&#12540;&#12473;&#12465;&#12540;&#12473;&#22259;</text><!--cluster slack--><g id="cluster_slack"><rect fill="none" height="158" rx="2.5" ry="2.5" style="stroke:#181818;stroke-width:1.0;" width="188" x="223" y="44.2969"/><text fill="#000000" font-family="sans-serif" font-size="14" font-weight="bold" lengthAdjust="spacing" textLength="40" x="297" y="59.292">slack</text></g><!--cluster system--><g id="cluster_system"><rect fill="none" height="148" rx="2.5" ry="2.5" style="stroke:#181818;stroke-width:1.0;" width="274" x="444" y="48.2969"/><text fill="#000000" font-family="sans-serif" font-size="14" font-weight="bold" lengthAdjust="spacing" textLength="57" x="552.5" y="63.292">system</text></g><g id="elem_del"><ellipse cx="317.1551" cy="97.3279" fill="#F1F1F1" rx="78.1551" ry="18.031" style="stroke:#181818;stroke-width:0.5;"/><text fill="#000000" font-family="sans-serif" font-size="14" lengthAdjust="spacing" textLength="114" x="257.7659" y="100.9134">MACADDR&#12434;&#21066;&#38500;</text></g><g id="elem_add"><ellipse cx="317.1551" cy="168.3279" fill="#F1F1F1" rx="78.1551" ry="18.031" style="stroke:#181818;stroke-width:0.5;"/><text fill="#000000" font-family="sans-serif" font-size="14" lengthAdjust="spacing" textLength="114" x="257.7659" y="171.9134">MACADDR&#12434;&#36861;&#21152;</text></g><!--entity t--><g id="elem_t"><ellipse cx="680.5" cy="102.7969" fill="#F1F1F1" rx="8" ry="8" style="stroke:#181818;stroke-width:0.5;"/><path d="M680.5,110.7969 L680.5,137.7969 M667.5,118.7969 L693.5,118.7969 M680.5,137.7969 L667.5,152.7969 M680.5,137.7969 L693.5,152.7969 " fill="none" style="stroke:#181818;stroke-width:0.5;"/><text fill="#000000" font-family="sans-serif" font-size="14" lengthAdjust="spacing" textLength="43" x="659" y="167.292">TIMER</text></g><g id="elem_del_func"><ellipse cx="528.964" cy="99.4897" fill="#F1F1F1" rx="68.964" ry="16.1928" style="stroke:#181818;stroke-width:0.5;"/><text fill="#000000" font-family="sans-serif" font-size="14" lengthAdjust="spacing" textLength="90" x="480.964" y="103.2372">delete_mac()</text></g><g id="elem_add_func"><ellipse cx="529.2349" cy="165.2438" fill="#F1F1F1" rx="62.7349" ry="14.947" style="stroke:#181818;stroke-width:0.5;"/><text fill="#000000" font-family="sans-serif" font-size="14" lengthAdjust="spacing" textLength="72" x="490.2349" y="168.9914">add_mac()</text></g><!--entity u--><g id="elem_u"><ellipse cx="25" cy="103.7969" fill="#F1F1F1" rx="8" ry="8" style="stroke:#181818;stroke-width:0.5;"/><path d="M25,111.7969 L25,138.7969 M12,119.7969 L38,119.7969 M25,138.7969 L12,153.7969 M25,138.7969 L38,153.7969 " fill="none" style="stroke:#181818;stroke-width:0.5;"/><text fill="#000000" font-family="sans-serif" font-size="14" lengthAdjust="spacing" textLength="38" x="6" y="168.292">USER</text></g><!--link u to del--><g id="link_u_del"><path d="M44.14,131.0469 C84.07,126.0869 175.3456,114.7555 242.0156,106.4855 " fill="none" id="u-to-del" style="stroke:#181818;stroke-width:1.0;"/><polygon fill="#181818" points="247.97,105.7469,238.5461,102.8852,243.008,106.3624,239.5309,110.8244,247.97,105.7469" style="stroke:#181818;stroke-width:1.0;"/><text fill="#000000" font-family="sans-serif" font-size="13" lengthAdjust="spacing" textLength="126" x="77.5" y="107.3638">@bot del hostname</text></g><!--link u to add--><g id="link_u_add"><path d="M44.16,146.7969 C52.75,152.3869 63.43,158.2769 74,161.2969 C129.87,177.2669 189.979,178.3646 238.969,175.6846 " fill="none" id="u-to-add" style="stroke:#181818;stroke-width:1.0;"/><polygon fill="#181818" points="244.96,175.3569,235.7549,171.8545,239.9675,175.63,236.1919,179.8425,244.96,175.3569" style="stroke:#181818;stroke-width:1.0;"/><text fill="#000000" font-family="sans-serif" font-size="13" lengthAdjust="spacing" textLength="131" x="75" y="157.3638">@bot add hostname</text></g><!--link del to del_func--><g id="link_del_del_func"><path d="M395,98.0269 C416.31,98.2369 433.2703,98.389 454.0203,98.589 " fill="none" id="del-to-del_func" style="stroke:#181818;stroke-width:1.0;"/><polygon fill="#181818" points="460.02,98.6469,451.059,94.5603,455.0202,98.5987,450.9819,102.5599,460.02,98.6469" style="stroke:#181818;stroke-width:1.0;"/></g><!--link add to add_func--><g id="link_add_add_func"><path d="M395,167.1969 C418.53,166.8569 438.0806,166.5827 460.4506,166.2627 " fill="none" id="add-to-add_func" style="stroke:#181818;stroke-width:1.0;"/><polygon fill="#181818" points="466.45,166.1769,457.3937,162.306,461.4505,166.2484,457.5081,170.3052,466.45,166.1769" style="stroke:#181818;stroke-width:1.0;"/></g><!--reverse link del_func to t--><g id="link_del_func_t"><path d="M585.6392,111.5792 C612.4792,117.4992 638.32,123.2069 658.65,127.6969 " fill="none" id="del_func-backto-t" style="stroke:#181818;stroke-width:1.0;"/><polygon fill="#181818" points="579.78,110.2869,587.7072,116.1315,584.6626,111.3638,589.4303,108.3193,579.78,110.2869" style="stroke:#181818;stroke-width:1.0;"/></g><!--reverse link add_func to t--><g id="link_add_func_t"><path d="M581.5291,153.9243 C609.1791,147.8243 637.26,141.6169 658.64,136.8969 " fill="none" id="add_func-backto-t" style="stroke:#181818;stroke-width:1.0;"/><polygon fill="#181818" points="575.67,155.2169,585.3204,157.184,580.5526,154.1397,583.5969,149.3719,575.67,155.2169" style="stroke:#181818;stroke-width:1.0;"/></g><!--SRC=[oqbDAr4eoLSeoapFA558oInAJIx9pC_ZAiaioKbLUDoyx77pdiTDEnytROGmdixUp9MON99Vf10Qx1gaa5YiKCe5qfEObmvKNvoJc9ojKCsb00IbnQd9YSMf2hwEpeukBa6FcoOzxUnwENC9I4zAQWuEDI_sxttQjG2a9Z4bXQiMsUpAufBKNAZX42U4UFf2t522OfeIqFZKajJutCHa3Kqbg7tnQQLvoQZAW3OWgG7nm6fgkKeLT7NjG9gi59GSal9BG4o5ZFpYahp4t5Gbg3HGFKmQo4II1Yc6weSO29A6we08m6GKR7HrWMw7YKEu0000]--></g></svg>